<svg width="21" height="20" viewBox="0 0 21 20" fill="none" xmlns="http://www.w3.org/2000/svg">
<g clip-path="url(#clip0_50_510)">
<path d="M8.85 19.9C4.1 19.05 0.5 14.95 0.5 10C0.5 4.5 5 0 10.5 0C16 0 20.5 4.5 20.5 10C20.5 14.95 16.9 19.05 12.15 19.9L11.6 19.45H9.4L8.85 19.9Z" fill="#062B0B"/>
<path d="M14.4 12.8L14.85 10H12.2V8.05002C12.2 7.25002 12.5 6.65002 13.7 6.65002H15V4.10002C14.3 4.00002 13.5 3.90002 12.8 3.90002C10.5 3.90002 8.90002 5.30002 8.90002 7.80002V10H6.40002V12.8H8.90002V19.85C9.45002 19.95 10 20 10.55 20C11.1 20 11.65 19.95 12.2 19.85V12.8H14.4Z" fill="white"/>
</g>
<defs>
<clipPath id="clip0_50_510">
<rect width="20" height="20" fill="white" transform="translate(0.5)"/>
</clipPath>
</defs>
</svg>
