<svg width="17" height="16" viewBox="0 0 17 16" fill="none" xmlns="http://www.w3.org/2000/svg">
<g clip-path="url(#clip0_50_514)">
<path fill-rule="evenodd" clip-rule="evenodd" d="M2.58666 15.6522H14.7606C15.7211 15.6522 16.4997 14.8736 16.4997 13.9131V1.73919C16.4997 0.778696 15.7211 6.10352e-05 14.7606 6.10352e-05H2.58666C1.62617 6.10352e-05 0.847534 0.778696 0.847534 1.73919V13.9131C0.847534 14.8736 1.62617 15.6522 2.58666 15.6522Z" fill="#062B0B"/>
<path fill-rule="evenodd" clip-rule="evenodd" d="M14.3267 13.4784H12.004V9.5223C12.004 8.43765 11.5919 7.83152 10.7334 7.83152C9.79943 7.83152 9.31149 8.4623 9.31149 9.5223V13.4784H7.07306V5.94213H9.31149V6.95726C9.31149 6.95726 9.98452 5.71188 11.5838 5.71188C13.1823 5.71188 14.3267 6.68803 14.3267 8.70688V13.4784ZM4.40263 4.95532C3.64018 4.95532 3.02234 4.33263 3.02234 3.56466C3.02234 2.7967 3.64018 2.17401 4.40263 2.17401C5.16509 2.17401 5.78256 2.7967 5.78256 3.56466C5.78256 4.33263 5.16509 4.95532 4.40263 4.95532ZM3.24681 13.4784H5.5809V5.94213H3.24681V13.4784Z" fill="white"/>
</g>
<defs>
<clipPath id="clip0_50_514">
<rect width="15.6522" height="15.6522" fill="white" transform="translate(0.847839)"/>
</clipPath>
</defs>
</svg>
