<svg width="17" height="16" viewBox="0 0 17 16" fill="none" xmlns="http://www.w3.org/2000/svg">
<g clip-path="url(#clip0_50_513)">
<path d="M5.30219 0.0552831C4.4695 0.0945701 3.90085 0.227457 3.40374 0.422796C2.88925 0.623301 2.45318 0.892361 2.01931 1.3278C1.58543 1.76325 1.31825 2.19963 1.11915 2.7149C0.926472 3.21311 0.795933 3.78222 0.75915 4.61539C0.722368 5.44855 0.714228 5.71636 0.718298 7.84161C0.722368 9.96687 0.731759 10.2333 0.772141 11.0682C0.811898 11.9007 0.944315 12.4692 1.13965 12.9664C1.34047 13.4809 1.60922 13.9168 2.04482 14.3509C2.48042 14.7849 2.91649 15.0515 3.43301 15.2509C3.93075 15.4432 4.50002 15.5744 5.33303 15.6109C6.16604 15.6474 6.43416 15.6558 8.55879 15.6517C10.6834 15.6477 10.9509 15.6383 11.7856 15.5987C12.6204 15.5591 13.1859 15.4257 13.6833 15.2313C14.1978 15.03 14.634 14.7618 15.0677 14.326C15.5015 13.8902 15.7685 13.4535 15.9674 12.938C16.1603 12.4402 16.2913 11.871 16.3274 11.0386C16.3639 10.2032 16.3725 9.9365 16.3684 7.81156C16.3644 5.68662 16.3548 5.42022 16.3152 4.58565C16.2756 3.75107 16.143 3.18431 15.9479 2.68673C15.7467 2.17224 15.4783 1.73664 15.0429 1.30229C14.6074 0.867944 14.1704 0.601074 13.655 0.402605C13.1569 0.209927 12.588 0.0786048 11.755 0.0426048C10.9219 0.00660484 10.6538 -0.00262994 8.52842 0.00143962C6.40301 0.00550919 6.13692 0.0145874 5.30219 0.0552831ZM5.3936 14.203C4.63056 14.1698 4.21625 14.043 3.94014 13.9369C3.57451 13.796 3.31405 13.6257 3.03889 13.3532C2.76372 13.0807 2.59468 12.8193 2.45193 12.4545C2.34472 12.1784 2.21558 11.7645 2.1799 11.0015C2.14108 10.1768 2.13294 9.92914 2.1284 7.83974C2.12386 5.75033 2.13185 5.50302 2.168 4.678C2.20056 3.91558 2.32812 3.5008 2.43409 3.22485C2.57496 2.85874 2.74463 2.59876 3.01776 2.32375C3.29089 2.04874 3.5515 1.87939 3.91666 1.73664C4.19245 1.62895 4.6063 1.50092 5.36903 1.4646C6.19437 1.42547 6.44167 1.41765 8.53077 1.41311C10.6199 1.40857 10.8678 1.4164 11.6934 1.45271C12.4559 1.48589 12.8708 1.6122 13.1464 1.7188C13.5122 1.85967 13.7725 2.02887 14.0475 2.30247C14.3225 2.57607 14.4921 2.83574 14.6348 3.20168C14.7426 3.47669 14.8707 3.89038 14.9067 4.65358C14.946 5.47892 14.9549 5.72638 14.9586 7.81532C14.9624 9.90426 14.955 10.1523 14.9189 10.9771C14.8856 11.7401 14.7591 12.1546 14.6528 12.431C14.5119 12.7965 14.3421 13.0571 14.0688 13.3319C13.7955 13.6068 13.5352 13.7761 13.1699 13.9189C12.8944 14.0264 12.4801 14.1548 11.718 14.1911C10.8927 14.2299 10.6454 14.238 8.5555 14.2426C6.46562 14.2471 6.2191 14.2387 5.39376 14.203M11.7736 3.64386C11.7739 3.82961 11.8293 4.0111 11.9327 4.16538C12.0362 4.31965 12.1831 4.43978 12.3548 4.51056C12.5266 4.58135 12.7155 4.59961 12.8976 4.56305C13.0797 4.52648 13.2469 4.43673 13.378 4.30514C13.5091 4.17355 13.5982 4.00603 13.6341 3.82378C13.67 3.64152 13.6511 3.45272 13.5797 3.28124C13.5083 3.10976 13.3876 2.96331 13.2329 2.86041C13.0783 2.75751 12.8966 2.70279 12.7108 2.70316C12.4618 2.70366 12.2232 2.80304 12.0474 2.97944C11.8717 3.15585 11.7732 3.39484 11.7736 3.64386ZM4.52506 7.83441C4.52945 10.0539 6.33195 11.849 8.55096 11.8448C10.77 11.8406 12.5664 10.0382 12.5621 7.81876C12.5579 5.59928 10.7549 3.80367 8.53562 3.80805C6.3163 3.81243 4.52084 5.61525 4.52506 7.83441ZM5.9347 7.8316C5.93368 7.31564 6.08568 6.81096 6.37148 6.38139C6.65729 5.95182 7.06405 5.61664 7.54035 5.41825C8.01664 5.21986 8.54107 5.16716 9.04732 5.26681C9.55356 5.36647 10.0189 5.61401 10.3844 5.97812C10.75 6.34224 10.9994 6.80658 11.101 7.31243C11.2027 7.81828 11.1521 8.34291 10.9556 8.81998C10.7591 9.29706 10.4255 9.70515 9.99708 9.99266C9.56864 10.2802 9.06457 10.4342 8.54861 10.4352C8.20601 10.4359 7.86663 10.3691 7.54984 10.2387C7.23306 10.1082 6.94507 9.91661 6.70234 9.67484C6.45961 9.43307 6.26688 9.14584 6.13517 8.82958C6.00346 8.51331 5.93533 8.17419 5.9347 7.8316Z" fill="#062B0B"/>
</g>
<defs>
<clipPath id="clip0_50_513">
<rect width="15.6522" height="15.6522" fill="white" transform="translate(0.717407)"/>
</clipPath>
</defs>
</svg>
