<svg width="23" height="16" viewBox="0 0 23 16" fill="none" xmlns="http://www.w3.org/2000/svg">
<path d="M11.1019 0C11.1019 0 4.25317 6.08979e-06 2.53423 0.455899C1.61385 0.718378 0.85599 1.49192 0.598825 2.44514C0.15217 4.19962 0.152161 7.833 0.152161 7.833C0.152161 7.833 0.15217 11.4802 0.598825 13.207C0.85599 14.1602 1.60031 14.92 2.53423 15.1825C4.2667 15.6522 11.1019 15.6522 11.1019 15.6522C11.1019 15.6522 17.9642 15.6522 19.6831 15.1963C20.617 14.9338 21.3613 14.1879 21.605 13.2209C22.0652 11.4802 22.0652 7.84682 22.0652 7.84682C22.0652 7.84682 22.0787 4.19962 21.605 2.44514C21.3613 1.49192 20.617 0.732211 19.6831 0.483542C17.9642 2.18679e-05 11.1019 0 11.1019 0ZM8.92274 4.47606L14.621 7.833L8.92274 11.1761V4.47606Z" fill="#062B0B"/>
</svg>
